<?xml version="1.0" standalone="no"?>
<!DOCTYPE svg PUBLIC "-//W3C//DTD SVG 20010904//EN"
 "http://www.w3.org/TR/2001/REC-SVG-20010904/DTD/svg10.dtd">
<svg version="1.0" xmlns="http://www.w3.org/2000/svg"
 width="640.000000pt" height="640.000000pt" viewBox="0 0 640.000000 640.000000"
 preserveAspectRatio="xMidYMid meet">
<metadata>
Created by potrace 1.11, written by Peter Selinger 2001-2013
</metadata>
<g transform="translate(0.000000,640.000000) scale(0.100000,-0.100000)"
fill="#000000" stroke="none">
<path d="M4450 6384 c-278 -94 -455 -202 -657 -399 -28 -27 -56 -54 -62 -60
-24 -22 -83 -100 -98 -129 -9 -17 -19 -33 -23 -36 -4 -3 -26 -45 -49 -95 -24
-49 -46 -97 -50 -105 -6 -11 -19 -13 -47 -10 -70 9 -366 4 -469 -8 -201 -23
-420 -65 -505 -97 -25 -9 -65 -24 -90 -32 -83 -27 -201 -78 -218 -94 -10 -8
-44 -30 -77 -48 -80 -44 -200 -129 -318 -226 -53 -44 -121 -100 -151 -123 -50
-41 -196 -179 -196 -186 0 -2 -17 -21 -37 -42 -45 -47 -162 -227 -203 -309
-45 -91 -99 -236 -112 -301 -16 -76 -15 -437 1 -524 15 -81 33 -144 83 -290
22 -63 42 -122 44 -130 3 -9 -21 -40 -56 -75 -46 -45 -73 -85 -113 -165 l-52
-105 0 -150 c0 -161 1 -167 63 -293 45 -92 147 -190 265 -256 78 -43 179 -66
290 -66 97 0 98 0 107 -27 6 -16 19 -44 29 -63 11 -19 33 -62 51 -94 115 -215
270 -398 453 -534 48 -36 87 -68 87 -72 0 -4 -18 -15 -39 -25 -42 -19 -107
-77 -184 -165 -79 -91 -226 -412 -343 -751 -57 -166 -94 -281 -94 -291 0 -5
28 -8 63 -8 l62 0 38 118 c153 473 319 823 445 933 95 83 191 89 232 14 24
-44 127 -118 207 -149 103 -39 113 -36 61 25 -87 102 -100 119 -88 119 7 0 27
-16 44 -37 92 -108 141 -153 175 -162 20 -5 91 -15 158 -22 100 -10 148 -10
260 0 76 8 147 17 158 21 19 7 95 82 163 160 48 56 49 27 1 -32 -24 -29 -52
-60 -61 -69 -36 -33 -11 -38 61 -13 98 34 178 89 228 156 29 40 40 48 68 48
56 0 110 -29 157 -85 15 -19 15 -27 -2 -125 -48 -287 -73 -427 -95 -557 -27
-155 -31 -208 -14 -219 10 -6 5 -76 -8 -110 -3 -9 2 -14 15 -14 18 0 21 7 24
45 l3 45 57 -45 58 -45 628 0 629 0 7 43 c4 23 11 65 16 92 6 28 14 75 19 105
6 30 13 69 16 85 4 17 11 59 16 95 4 36 13 92 19 125 6 33 13 84 16 113 4 29
10 55 15 58 5 3 9 25 9 49 0 38 -5 49 -37 81 -21 20 -54 47 -73 59 -19 13 -44
31 -55 42 -11 10 -31 26 -45 35 -35 24 -149 109 -266 198 -159 121 -166 124
-241 96 -21 -7 -72 -24 -113 -36 -41 -12 -84 -26 -95 -30 -11 -5 -47 -17 -80
-28 -33 -11 -107 -36 -164 -56 -58 -20 -112 -36 -121 -36 -9 0 -35 18 -59 40
-24 22 -63 52 -87 66 -24 14 -44 29 -44 34 0 4 12 16 28 26 52 34 217 172 258
215 117 127 206 256 301 437 l65 122 88 0 c117 0 178 14 275 61 134 64 250
181 305 306 27 60 53 216 47 271 -12 101 -19 138 -29 162 -32 82 -90 178 -135
227 -29 32 -53 63 -53 71 0 7 11 48 25 89 44 129 68 257 83 430 6 65 11 85 27
97 11 9 25 16 32 16 6 0 13 4 15 8 2 4 32 28 68 53 36 25 74 52 85 62 40 33
256 198 375 286 94 69 239 214 308 306 29 39 79 124 112 189 59 117 60 120 59
200 l0 81 -18 -65 c-53 -194 -185 -408 -344 -557 -111 -104 -721 -550 -986
-721 -204 -132 -275 -154 -342 -109 -71 48 -64 96 36 241 62 91 95 147 95 164
0 5 -39 14 -87 21 -49 7 -104 17 -123 21 -19 5 -57 14 -85 21 -45 10 -136 41
-220 73 -77 30 -238 122 -316 180 -97 74 -233 212 -301 307 -204 288 -263 657
-157 984 136 416 524 748 1009 864 47 11 99 22 115 24 17 2 -17 4 -75 5 -70 1
-120 -4 -150 -14z m-1940 -2314 c140 -9 228 -19 355 -41 58 -10 388 -83 450
-99 198 -53 471 -135 550 -167 22 -8 49 -19 60 -23 79 -31 199 -87 220 -103
17 -13 8 -15 -105 -15 -113 -1 -134 -4 -214 -31 -104 -36 -159 -66 -202 -113
-42 -44 -49 -70 -26 -98 26 -32 63 -28 125 10 124 79 192 100 323 100 104 0
237 -33 314 -77 64 -37 170 -142 170 -167 0 -21 0 -21 -443 -21 -434 0 -443
-1 -507 -23 -186 -65 -514 -68 -716 -7 -81 25 -83 25 -567 27 -268 2 -487 3
-487 4 0 1 5 15 11 31 7 21 19 33 37 36 15 4 50 27 77 53 102 96 263 148 435
142 116 -5 164 -20 275 -90 68 -43 112 -49 140 -18 54 60 -54 155 -245 216
-112 35 -257 37 -375 4 -107 -30 -125 -34 -125 -25 0 4 15 33 34 64 59 98 112
231 141 356 8 37 18 71 21 76 7 12 93 11 274 -1z m159 -952 c117 -10 137 -14
162 -36 28 -23 29 -26 29 -124 0 -111 -22 -243 -50 -298 -23 -44 -63 -82 -117
-109 -67 -33 -234 -44 -578 -37 -365 8 -408 16 -451 82 -16 24 -16 26 8 52 29
30 35 46 48 124 25 147 59 325 65 340 6 16 31 18 269 20 324 4 444 1 615 -14z
m1938 -93 c13 -49 33 -137 44 -195 22 -106 53 -178 91 -204 44 -31 -13 -88
-99 -100 -69 -9 -725 -9 -803 0 -73 8 -143 35 -178 67 -62 58 -97 184 -97 355
l0 114 30 24 c37 30 50 30 574 30 l415 -1 23 -90z m-1256 -16 c60 -19 92 -67
139 -207 48 -147 82 -213 125 -249 47 -40 143 -80 215 -88 177 -21 798 -9 878
16 18 6 35 9 37 7 4 -4 -60 -193 -89 -263 -75 -180 -159 -342 -242 -466 -87
-130 -257 -303 -374 -380 -274 -180 -626 -309 -846 -309 -72 0 -218 30 -323
66 -84 29 -312 129 -351 154 -14 9 -42 24 -62 35 -57 30 -176 120 -252 192
-202 191 -368 475 -507 868 -40 114 -39 120 9 99 81 -34 875 -37 972 -3 86 30
158 87 191 150 10 20 34 84 53 143 39 117 76 195 101 216 28 24 269 37 326 19z
m-2055 -41 c19 -64 91 -195 132 -246 26 -31 54 -77 62 -102 33 -107 112 -343
130 -390 32 -82 31 -84 -50 -76 -125 11 -222 58 -313 150 -168 171 -181 434
-31 635 42 56 59 63 70 29z m3944 -114 c86 -167 63 -373 -58 -520 -88 -107
-200 -168 -331 -180 -75 -7 -91 2 -73 39 18 39 58 150 96 268 31 96 42 118 66
132 28 17 31 22 95 167 21 47 53 118 72 159 l35 75 33 -40 c19 -21 48 -66 65
-100z m-287 -1721 c37 -27 67 -51 67 -54 0 -15 -166 -62 -183 -52 -7 4 -36 25
-65 46 -53 39 -67 66 -34 68 9 0 40 9 67 19 28 9 57 18 66 19 9 0 46 -20 82
-46z m-228 -70 c35 -27 64 -51 65 -54 0 -8 -33 -20 -112 -44 l-56 -16 -66 47
c-36 26 -66 53 -66 59 0 9 123 50 163 54 4 1 37 -20 72 -46z m-217 -80 c34
-24 62 -46 62 -48 0 -2 -39 -16 -86 -31 l-86 -26 -69 47 c-71 49 -80 61 -53
72 42 16 150 40 159 35 6 -3 38 -25 73 -49z m636 7 c36 -28 66 -52 66 -54 0
-5 -108 -40 -151 -50 -21 -5 -40 4 -93 45 -37 28 -65 54 -61 57 8 9 135 50
156 51 9 1 46 -22 83 -49z m-258 -47 c18 -16 47 -39 64 -52 17 -13 28 -26 25
-29 -7 -7 -146 -52 -161 -52 -17 0 -146 101 -139 108 9 10 136 51 159 51 10 1
33 -11 52 -26z m-198 -94 c35 -28 61 -53 58 -57 -8 -8 -138 -51 -155 -52 -15
0 -154 100 -148 107 7 7 151 52 167 52 8 0 43 -22 78 -50z m641 3 c36 -26 66
-52 68 -57 3 -10 -129 -55 -161 -55 -8 0 -35 15 -59 33 -24 17 -57 41 -72 53
l-29 21 74 25 c41 14 84 26 95 26 11 0 49 -21 84 -46z m-228 -73 c38 -28 69
-54 69 -59 0 -9 -127 -50 -156 -50 -11 0 -45 18 -75 41 -30 22 -61 44 -69 49
-8 5 -12 12 -8 16 9 8 137 52 157 53 7 1 44 -22 82 -50z m-230 -67 c35 -26 64
-53 66 -59 4 -12 -111 -53 -149 -53 -26 0 -143 83 -143 101 0 12 113 57 147
58 9 1 45 -21 79 -47z"/>
<path d="M1870 2900 c-37 -37 -21 -91 31 -109 18 -6 85 -11 150 -11 l118 0 15
-27 c8 -16 32 -44 53 -65 137 -131 340 -67 400 126 10 32 9 44 -2 66 -8 15
-22 30 -30 34 -9 3 -174 6 -366 6 -336 0 -350 -1 -369 -20z"/>
<path d="M3853 2910 c-27 -11 -39 -61 -21 -89 19 -31 68 -41 195 -41 l111 0
21 -32 c88 -143 251 -169 371 -61 80 72 107 191 50 220 -29 15 -690 18 -727 3z"/>
<path d="M2183 2113 c-11 -27 -16 -64 -16 -124 1 -76 5 -94 37 -163 92 -199
294 -361 556 -446 155 -50 248 -63 430 -64 178 0 276 14 424 61 321 100 583
359 603 595 7 76 -14 151 -47 168 -12 6 -370 10 -994 10 l-976 0 -17 -37z
m1935 -106 c6 -53 -21 -67 -213 -106 -27 -5 -75 -13 -105 -16 -30 -4 -91 -11
-135 -16 -143 -17 -518 -38 -595 -34 -41 2 -120 7 -175 10 -147 8 -337 35
-465 66 -121 29 -144 37 -156 54 -17 23 -18 47 -2 63 9 9 224 12 928 10 l915
-3 3 -28z m-327 -267 c60 -11 110 -32 128 -54 9 -11 2 -22 -40 -55 -51 -40
-212 -124 -273 -143 -113 -33 -186 -48 -293 -58 -185 -18 -342 0 -535 61 -132
41 -321 149 -316 179 5 26 78 54 154 58 67 4 72 2 91 -22 l21 -26 69 17 c96
25 691 26 796 1 63 -15 67 -15 67 2 0 22 17 37 50 43 14 2 26 5 26 6 1 0 26
-4 55 -9z"/>
<path d="M5245 6393 c183 -28 431 -121 575 -217 291 -192 467 -417 561 -721
l19 -60 -3 85 c-2 78 -6 92 -46 170 -84 167 -163 274 -292 394 -136 127 -269
209 -489 305 -105 45 -105 45 -230 47 -69 1 -111 0 -95 -3z"/>
<path d="M4148 5548 l-3 -53 -47 -3 c-47 -3 -48 -3 -48 27 0 24 5 32 25 37 14
3 25 13 25 21 0 12 -7 14 -32 9 -18 -3 -52 -9 -76 -12 -46 -7 -52 -27 -10 -32
53 -6 40 -47 -16 -54 -47 -5 -45 -28 3 -28 23 0 42 -3 42 -7 9 -55 -5 -78 -51
-85 -14 -2 -25 -10 -25 -18 0 -11 9 -14 38 -12 l37 4 0 -41 c0 -39 -2 -41 -30
-41 -36 0 -39 -17 -6 -30 29 -11 66 -2 67 16 1 8 3 32 4 54 1 22 3 44 4 50 0
5 16 13 34 18 43 11 44 38 0 34 -35 -3 -47 9 -38 38 5 16 15 20 55 20 49 0 49
-1 59 -37 24 -98 24 -99 -22 -137 -60 -50 -32 -62 35 -14 14 10 21 8 42 -15
27 -29 55 -34 74 -15 23 23 14 38 -20 36 -27 -3 -34 1 -36 18 -2 12 6 39 17
60 23 43 26 60 11 69 -5 3 -17 -9 -26 -27 -16 -30 -17 -31 -30 -13 -8 10 -14
31 -14 47 0 27 1 28 56 28 68 0 71 23 3 28 -43 3 -63 13 -65 33 -1 5 -2 25 -3
44 -1 23 -6 35 -15 35 -11 0 -16 -15 -18 -52z"/>
<path d="M4210 5578 c1 -17 35 -58 49 -58 16 0 14 22 -5 48 -16 24 -44 30 -44
10z"/>
<path d="M4497 5584 c-4 -4 -7 -40 -7 -80 l0 -73 33 -6 c17 -3 59 -5 92 -3
l60 3 0 80 0 80 -85 3 c-47 1 -89 0 -93 -4z m73 -44 c0 -15 -7 -20 -25 -20
-18 0 -25 5 -25 20 0 15 7 20 25 20 18 0 25 -5 25 -20z m78 -3 c3 -12 -3 -17
-22 -17 -25 0 -35 18 -19 34 12 12 38 2 41 -17z m-78 -67 c0 -15 -7 -20 -25
-20 -18 0 -25 5 -25 20 0 15 7 20 25 20 18 0 25 -5 25 -20z m78 3 c5 -17 -26
-29 -40 -15 -6 6 -7 15 -3 22 9 14 37 9 43 -7z"/>
<path d="M4892 5570 c-9 -15 -23 -20 -57 -20 l-45 0 0 -52 c-3 -263 0 -294 21
-255 9 14 26 17 120 17 88 0 111 -3 115 -15 4 -8 12 -15 20 -15 11 0 14 30 14
160 l0 160 -75 0 c-68 0 -75 2 -75 20 0 11 -6 20 -13 20 -7 0 -18 -9 -25 -20z
m153 -80 l0 -25 -112 -3 c-104 -2 -112 -1 -118 18 -12 36 2 41 118 38 l112 -3
0 -25z m0 -90 l0 -25 -113 -3 c-93 -2 -113 0 -118 13 -3 8 -3 22 0 30 5 13 25
15 118 13 l113 -3 0 -25z m0 -85 c0 -19 -8 -20 -109 -23 -114 -3 -140 5 -116
33 11 13 32 15 119 13 98 -3 106 -4 106 -23z"/>
<path d="M5622 5544 c-42 -42 -48 -67 -14 -62 11 2 18 -6 22 -27 8 -46 25 -31
28 27 2 28 10 61 18 72 37 53 1 46 -54 -10z"/>
<path d="M5752 5563 c3 -24 -1 -28 -26 -33 -50 -9 -44 -30 8 -30 35 0 48 -4
56 -21 29 -53 124 -78 139 -36 14 37 1 53 -20 26 l-18 -24 -37 20 c-51 27 -53
42 -7 50 59 10 73 15 73 27 0 7 -21 9 -64 4 -62 -6 -64 -6 -70 19 -9 35 -38
33 -34 -2z"/>
<path d="M5830 5580 c0 -5 9 -10 21 -10 11 0 17 5 14 10 -3 6 -13 10 -21 10
-8 0 -14 -4 -14 -10z"/>
<path d="M5190 5565 c0 -13 20 -15 126 -15 l125 0 -3 -47 -3 -48 -106 -1 c-59
-1 -114 -4 -123 -7 -23 -9 -23 -178 -1 -201 33 -33 260 -32 297 1 19 17 24 68
9 78 -5 3 -15 -11 -21 -30 l-12 -35 -124 0 -124 0 -1 50 c-1 28 -1 57 -1 65 0
48 -4 46 110 43 59 -2 114 -6 122 -8 13 -4 15 9 15 80 l0 85 -142 3 c-123 2
-143 0 -143 -13z"/>
<path d="M4363 5563 c-10 -3 -13 -40 -13 -132 0 -70 3 -131 7 -135 4 -4 15 3
25 16 15 20 19 22 39 10 18 -12 23 -12 30 0 12 19 11 205 -1 229 -10 18 -56
25 -87 12z m58 -80 c2 -104 -4 -131 -27 -112 -15 12 -21 139 -7 152 20 20 33
4 34 -40z"/>
<path d="M5720 5410 c0 -5 -30 -10 -67 -12 -42 -2 -68 -8 -71 -15 -3 -10 12
-13 52 -13 31 0 56 -3 56 -8 0 -12 -34 -30 -79 -42 -26 -7 -41 -17 -41 -26 0
-13 7 -15 34 -10 31 6 34 4 40 -25 l6 -32 52 7 c57 8 85 23 69 39 -5 5 -17 5
-29 -2 -11 -6 -30 -11 -41 -11 -17 0 -21 6 -21 29 0 23 8 34 34 50 18 12 37
21 42 21 5 -1 23 -18 39 -39 30 -38 102 -91 124 -91 23 0 10 30 -19 45 -34 17
-37 27 -15 45 26 21 1 36 -28 17 -23 -15 -26 -15 -41 2 -9 10 -16 21 -16 24 0
4 29 7 65 7 51 0 65 3 65 15 0 12 -16 15 -84 15 -47 0 -88 5 -91 10 -8 13 -35
13 -35 0z"/>
<path d="M4480 5386 c0 -8 5 -18 10 -21 6 -3 10 -36 10 -72 l0 -65 38 7 c39 7
62 21 62 37 0 6 -14 8 -34 4 -38 -7 -42 -2 -41 54 0 30 3 35 24 35 14 0 28 -9
35 -20 30 -57 59 -93 81 -103 33 -15 47 6 17 26 -26 17 -27 29 -5 54 21 24 9
35 -21 19 -26 -14 -46 -8 -46 14 0 9 14 15 43 17 23 2 42 8 42 13 0 6 -44 11
-107 13 -90 2 -108 0 -108 -12z"/>
<path d="M4017 4963 c-4 -3 -7 -14 -7 -24 0 -12 -9 -19 -27 -21 -36 -4 -41
-26 -6 -30 21 -2 29 -9 31 -27 4 -26 -12 -41 -45 -41 -14 0 -23 -6 -23 -16 0
-14 9 -15 63 -10 34 4 71 9 82 11 11 2 23 4 27 4 4 1 5 7 2 15 -3 8 -18 13
-37 12 -28 -1 -32 2 -32 24 0 20 5 25 29 27 15 1 31 5 34 8 9 9 -20 25 -45 25
-18 0 -23 6 -23 25 0 24 -10 32 -23 18z"/>
<path d="M4154 4957 c-2 -7 -3 -46 -2 -87 3 -62 6 -75 21 -78 14 -3 17 4 17
42 0 51 4 54 40 26 14 -11 31 -20 38 -20 24 0 11 20 -33 52 -29 22 -44 41 -45
56 0 24 -27 31 -36 9z"/>
<path d="M4570 4811 c0 -6 5 -13 10 -16 6 -3 10 -15 10 -26 0 -18 -8 -19 -100
-19 -60 0 -100 -4 -100 -10 0 -6 40 -10 100 -10 102 0 113 -5 91 -40 -6 -8 -7
-18 -4 -23 6 -10 83 62 83 78 0 6 -15 25 -33 43 -32 31 -57 41 -57 23z"/>
<path d="M5165 4803 c19 -46 15 -48 -93 -51 -134 -4 -126 -22 10 -22 91 0 100
-2 93 -17 -22 -55 -20 -59 15 -32 18 14 40 35 48 47 13 19 11 24 -21 57 -37
38 -64 47 -52 18z"/>
<path d="M3970 4706 c0 -56 -2 -64 -21 -69 -12 -3 -19 -12 -17 -19 4 -10 44
-13 183 -13 139 0 179 3 183 13 2 7 -5 16 -17 19 -19 5 -21 13 -21 69 l0 64
-145 0 -145 0 0 -64z m81 24 c6 0 9 -19 7 -42 -3 -39 -6 -43 -30 -46 -27 -3
-28 -1 -28 41 0 48 7 60 28 52 7 -3 18 -5 23 -5z m89 -47 c0 -42 -1 -44 -27
-41 -25 3 -28 8 -31 45 -2 33 0 42 15 45 34 8 43 -3 43 -49z m74 51 c11 -4 16
-19 16 -50 0 -42 -1 -44 -30 -44 -29 0 -30 2 -30 44 0 26 5 46 13 49 6 3 13 6
14 6 1 1 8 -2 17 -5z"/>
<path d="M4730 4585 c0 -12 16 -15 85 -15 69 0 85 3 85 15 0 12 -16 15 -85 15
-69 0 -85 -3 -85 -15z"/>
<path d="M2906 423 c-3 -3 -6 -100 -6 -215 l0 -209 58 3 57 3 5 115 5 115 50
1 c28 1 110 2 183 3 118 1 132 3 132 19 1 16 1 16 14 -1 13 -17 33 -21 87 -18
34 1 39 21 32 116 l-6 74 -302 0 c-166 0 -305 -3 -309 -6z m502 -87 c2 -10 -2
-22 -10 -27 -15 -10 -338 -12 -362 -3 -16 6 -22 35 -9 48 4 3 90 5 192 4 173
-3 186 -4 189 -22z"/>
<path d="M3068 200 c-2 -6 -1 -36 2 -68 l5 -57 78 -3 c101 -4 100 -22 -1 -22
-77 0 -102 -9 -102 -37 0 -10 48 -13 231 -13 l230 0 -3 23 c-3 20 -9 22 -85
25 -46 2 -83 7 -83 12 0 6 6 10 14 10 8 0 16 6 19 13 3 9 7 9 20 -1 9 -8 33
-12 59 -10 l43 3 3 68 3 67 -215 0 c-138 0 -216 -4 -218 -10z m322 -55 c0 -11
-12 -15 -47 -16 -27 0 -75 -1 -108 -2 -49 -1 -60 2 -63 16 -3 15 8 17 107 17
92 0 111 -3 111 -15z"/>
<path d="M2381 85 c-16 -65 -14 -85 9 -85 18 0 20 7 20 59 0 73 -14 86 -29 26z"/>
</g>
</svg>
